# AST/ASF file generated using VICON BodyLanguage
# -----------------------------------------------
:version 1.10
:name VICON
:units
  mass 1.0
  length 0.45
  angle deg
:documentation
   .ast/.asf automatically generated from VICON data using
   VICON BodyBuilder and BodyLanguage model FoxedUp or BRILLIANT.MOD
:root
   order TX TY TZ RX RY RZ
   axis XYZ
   position 0 0 0  
   orientation 0 0 0 
:bonedata
  begin
     id 1 
     name lhipjoint
     direction 0.624716 -0.669793 0.401383 
     length 2.38238 
     axis 0 0 0  XYZ
  end
  begin
     id 2 
     name lfemur
     direction 0.34202 -0.939693 0  
     length 6.4574  
     axis 0 0 20  XYZ
    dof rx ry rz
    limits (-160.0 20.0)
           (-70.0 70.0)
           (-60.0 70.0)
  end
  begin
     id 3 
     name ltibia
     direction 0.34202 -0.939693 0   
     length 7.68739   
     axis 0 0 20   XYZ
    dof rx
    limits (-10.0 170.0)
  end
  begin
     id 4 
     name lfoot
     direction 0.0681309 -0.187188 0.979959   
     length 2.46615   
     axis -90 7.62852e-016 20   XYZ
    dof rx rz
    limits (-45.0 90.0)
           (-70.0 20.0)
  end
  begin
     id 5 
     name ltoes
     direction 1.53566e-011 -4.21819e-011 1   
     length 1.2376   
     axis -90 7.62852e-016 20   XYZ
    dof rx
    limits (-90.0 20.0)
  end
  begin
     id 6 
     name rhipjoint
     direction -0.644473 -0.655875 0.393043   
     length 2.43293  
     axis 0 0 0  XYZ 
  end
  begin
     id 7 
     name rfemur
     direction -0.34202 -0.939693 0   
     length 6.7025   
     axis 0 0 -20   XYZ
    dof rx ry rz
    limits (-160.0 20.0)
           (-70.0 70.0)
           (-70.0 60.0)
  end
  begin
     id 8 
     name rtibia
     direction -0.34202 -0.939693 0   
     length 7.80547   
     axis 0 0 -20   XYZ
    dof rx
    limits (-10.0 170.0)
 end
 begin
     id 9 
     name rfoot
     direction -0.0756734 -0.207911 0.975216   
     length 2.40315  
     axis -90 -7.62852e-016 -20   XYZ
    dof rx rz
    limits (-45.0 90.0)
           (-20.0 70.0)
  end
  begin
     id 10 
     name rtoes
     direction -1.5353e-011 -4.21879e-011 1   
     length 1.20477   
     axis -90 -7.62852e-016 -20   XYZ
    dof rx
    limits (-90.0 20.0)
  end
  begin
     id 11 
     name lowerback
     direction 0.0160353 0.987463 -0.157037   
     length 2.18572   
     axis 0 0 0   XYZ
    dof rx ry rz
    limits (-20.0 45.0)
           (-30.0 30.0)
           (-30.0 30.0)
  end
  begin
     id 12 
     name upperback
     direction -0.00499661 0.999756 0.0215076   
     length 2.18016   
     axis 0 0 0   XYZ
    dof rx ry rz
    limits (-20.0 45.0)
           (-30.0 30.0)
           (-30.0 30.0)
  end
  begin
     id 13 
     name thorax
     direction -0.00921346 0.995333 0.0960619   
     length 2.24923   
     axis 0 0 0   XYZ
    dof rx ry rz
    limits (-20.0 45.0)
           (-30.0 30.0)
           (-30.0 30.0)
  end
  begin
     id 14 
     name lowerneck
     direction 0.0274184 0.991181 0.12965   
     length 1.70911   
     axis 0 0 0   XYZ
    dof rx ry rz
    limits (-20.0 45.0)
           (-30.0 30.0)
           (-30.0 30.0)
  end
  begin
     id 15 
     name upperneck
     direction 0.0015627 0.999959 -0.00893559   
     length 1.69312   
     axis 0 0 0   XYZ
    dof rx ry rz
    limits (-20.0 45.0)
           (-30.0 30.0)
           (-30.0 30.0)
  end
  begin
     id 16
     name head
     direction -0.00230242 0.999856 -0.0168327  
     length 1.80241  
     axis 0 0 0   XYZ
    dof rx ry rz
    limits (-20.0 45.0)
           (-30.0 30.0)
           (-30.0 30.0)
  end
  begin
     id 17 
     name lclavicle
     direction 0.955523 0.290741 -0.0494489  
     length 3.84275  
     axis 0 0 0   XYZ
    dof ry rz
    limits (-20.0 10.0)
           (0.0 20.0)
  end
  begin
     id 18 
     name lhumerus
     direction 1 -4.48967e-011 -3.18382e-028   
     length 5.17714   
     axis 180 -30 -90   XYZ
    dof rx ry rz
    limits (-60.0 90.0)
           (-90.0 90.0)
           (-90.0 90.0)
  end
  begin
     id 19
     name lradius
     direction 1 -4.48968e-011 -2.22911e-027   
     length 3.43679   
     axis 180 -30 -90   XYZ
    dof rx
    limits (-10.0 170.0)
  end
  begin
     id 20
     name lwrist
     direction 1 -4.48951e-011 -6.32245e-027   
     length 1.7184   
     axis 3.57107e-015 90 90   XYZ
    dof ry
    limits (-180.0 0.0)
 end
  begin
     id 21 
     name lhand
     direction 1 -4.48924e-011 -1.26431e-026   
     length 0.573117   
     axis 8.06912e-015 90 90   XYZ
    dof rx rz
    limits (-90.0 90.0)
           (-45.0 45.0)
  end
  begin
     id 22 
     name lfingers
     direction 1 -4.49001e-011 -2.52965e-026   
     length 0.462062   
     axis 1.61381e-014 90 90   XYZ
    dof rx
    limits (0.0 90.0)
  end
  begin
     id 23
     name lthumb
     direction 0.707107 -6.35008e-011 0.707107   
     length 0.663431   
     axis -90 45 -1.62303e-014   XYZ
    dof rx rz
    limits (-45.0 45.0)
           (-45.0 45.0)
  end
  begin
     id 24 
     name rclavicle
     direction -0.963917 0.256881 -0.0698287   
     length 3.73057  
     axis 0 0 0   XYZ 
    dof ry rz
    limits (-10.0 20.0)
           (-20.0 0.0)
  end
  begin
     id 25 
     name rhumerus
     direction -1 -4.48962e-011 -2.73982e-027  
     length 5.23908   
     axis 180 30 90   XYZ
    dof rx ry rz
    limits (-90.0 60.0)
           (-90.0 90.0)
           (-90.0 90.0)
  end
  begin
     id 26 
     name rradius
     direction -1 -4.48968e-011 -4.33218e-027   
     length 3.46485   
     axis 180 30 90   XYZ
    dof rx
    limits (-10.0 170.0)
  end
  begin
     id 27 
     name rwrist
     direction -1 -4.48989e-011 -6.32372e-027   
     length 1.73243   
     axis 3.57107e-015 -90 -90   XYZ
    dof ry
    limits (-180.0 0.0)
  end
  begin
     id 28
     name rhand
     direction -1 -4.48948e-011 -1.26448e-026   
     length 0.608752   
     axis 8.06912e-015 -90 -90   XYZ
    dof rx rz
    limits (-90.0 90.0)
           (-45.0 45.0)
  end
  begin
     id 29
     name rfingers
     direction -1 -4.48962e-011 -2.52913e-026   
     length 0.490792   
     axis 1.61381e-014 -90 -90   XYZ
    dof rx
    limits (0.0 90.0)
  end
  begin
     id 30
     name rthumb
     direction -0.707107 -6.34878e-011 0.707107   
     length 0.704682   
     axis -90 -45 1.62303e-014   XYZ
    dof rx rz
    limits (-45.0 45.0)
           (-45.0 45.0)
  end
:hierarchy
  begin
    root lhipjoint rhipjoint lowerback
    lhipjoint lfemur
    lfemur ltibia
    ltibia lfoot
    lfoot ltoes
    rhipjoint rfemur
    rfemur rtibia
    rtibia rfoot
    rfoot rtoes
    lowerback upperback
    upperback thorax
    thorax lowerneck lclavicle rclavicle
    lowerneck upperneck
    upperneck head
    lclavicle lhumerus
    lhumerus lradius
    lradius lwrist
    lwrist lhand lthumb
    lhand lfingers
    rclavicle rhumerus
    rhumerus rradius
    rradius rwrist
    rwrist rhand rthumb
    rhand rfingers
  end

#!OML:ASF G:\JayActor3\Patient Classification 1\Patient 1\Session 6\male.ASF
:FULLY-SPECIFIED
:DEGREES
1
root 50.6393 15.6556 -26.9338 2.5146 -58.8792 -6.01683
lowerback -0.620271 -1.48525 0.739575
upperback 3.71485 -2.06211 0.683835
thorax 4.17067 -1.02822 0.202201
lowerneck -3.68915 2.94384 2.30082
upperneck 12.0563 4.48819 -6.95058
head 4.41568 1.88952 -2.29185
rclavicle -4.2366e-014 1.23246e-014
rhumerus -33.3653 -10.5936 -79.3616
rradius 27.9085
rwrist 1.89866
rhand -20.1982 -5.28088
rfingers 7.12502
rthumb 6.14845 -35.1717
lclavicle -4.2366e-014 1.23246e-014
lhumerus 1.23202 -34.4412 74.4538
lradius 122.234
lwrist 21.45
lhand -5.66889 0.471311
lfingers 7.12502
lthumb 20.1506 29.4462
rfemur -10.4793 3.16686 23.4416
rtibia 37.9669
rfoot -24.3038 -12.6115
rtoes -1.05208
lfemur -3.31785 12.3841 -17.7136
ltibia 26.3431
lfoot -20.3129 6.98316
ltoes 0.0102487
2
root 50.635 15.6574 -26.9415 2.48103 -59.0179 -5.95939
lowerback -0.510535 -1.48407 0.77697
upperback 3.64572 -2.05619 0.624975
thorax 4.03298 -1.02319 0.125368
lowerneck -3.74771 2.94981 2.49739
upperneck 12.1225 4.4884 -6.98295
head 4.45043 1.89422 -2.33333
rclavicle 4.16454e-014 4.17448e-015
rhumerus -33.4194 -10.551 -79.4936
rradius 28.0952
rwrist 1.69984
rhand -20.3417 -5.13077
rfingers 7.12502
rthumb 6.00988 -35.0255
lclavicle 4.16454e-014 4.17448e-015
lhumerus -0.0449198 -34.7702 74.2987
lradius 121.203
lwrist 20.6725
lhand -5.18458 0.957704
lfingers 7.12502
lthumb 20.6161 29.8829
rfemur -10.4356 3.39988 23.4664
rtibia 37.86
rfoot -24.296 -12.8453
rtoes -1.51539
lfemur -3.27137 12.2944 -17.7565
ltibia 26.2732
lfoot -20.2869 7.23596
ltoes -0.205089
3
root 50.6307 15.6605 -26.9478 2.49213 -59.1507 -5.92849
lowerback -0.470533 -1.49204 0.786086
upperback 3.60812 -2.06605 0.634653
thorax 3.97126 -1.02815 0.131649
lowerneck -3.87465 2.96324 2.53452
upperneck 12.1898 4.50741 -6.98484
head 4.49421 1.9013 -2.33717
rclavicle -3.29237e-014 7.95139e-016
rhumerus -33.3696 -10.4142 -79.5585
rradius 28.2931
rwrist 1.45246
rhand -20.332 -5.1734
rfingers 7.12502
rthumb 6.01933 -35.0679
lclavicle -3.29237e-014 7.95139e-016
lhumerus -1.17808 -35.0718 74.2883
lradius 119.981
lwrist 20.0009
lhand -5.13375 1.23541
lfingers 7.12502
lthumb 20.6649 30.1553
rfemur -10.438 3.57818 23.492
rtibia 37.7937
rfoot -24.2718 -12.8703
rtoes -1.29738
lfemur -3.23765 12.1733 -17.7942
ltibia 26.1935
lfoot -20.3251 7.41839
ltoes 0.146554
4
root 50.628 15.6625 -26.9539 2.48005 -59.2742 -5.89396
lowerback -0.474245 -1.51845 0.77491
upperback 3.6318 -2.1032 0.669545
thorax 3.99967 -1.04779 0.171804
lowerneck -4.00452 2.99352 2.54046
upperneck 12.1666 4.5528 -7.03215
head 4.51261 1.91955 -2.34836
rclavicle 4.50123e-014 -3.37934e-015
rhumerus -33.2746 -10.1807 -79.6357
rradius 28.5472
rwrist 1.23416
rhand -20.2371 -5.26042
rfingers 7.12502
rthumb 6.11087 -35.1523
lclavicle 4.50123e-014 -3.37934e-015
lhumerus -2.34949 -35.3676 74.3616
lradius 118.586
lwrist 19.8235
lhand -5.42275 1.70637
lfingers 7.12502
lthumb 20.3872 30.6562
rfemur -10.4362 3.63821 23.4902
rtibia 37.7302
rfoot -24.2044 -12.8945
rtoes -1.31666
lfemur -3.20909 11.9575 -17.862
ltibia 26.1183
lfoot -20.3331 7.78605
ltoes 0.0848814
5
root 50.6253 15.6647 -26.9598 2.49161 -59.4043 -5.87885
lowerback -0.450519 -1.52384 0.802526
upperback 3.62423 -2.11108 0.677919
thorax 3.97771 -1.05111 0.165525
lowerneck -4.1245 3.00598 2.60506
upperneck 12.1974 4.5697 -7.06112
head 4.54521 1.9264 -2.36527
rclavicle -1.56543e-015 -3.97569e-016
rhumerus -33.2253 -10.0326 -79.7184
rradius 28.7843
rwrist 1.00012
rhand -20.2188 -5.28233
rfingers 7.12502
rthumb 6.12859 -35.1737
lclavicle -1.56543e-015 -3.97569e-016
lhumerus -3.54392 -35.7114 74.4321
lradius 117.232
lwrist 19.5393
lhand -5.51741 2.1626
lfingers 7.12502
lthumb 20.2962 31.1221
rfemur -10.444 3.71967 23.5014
rtibia 37.674
rfoot -24.1375 -12.9089
rtoes -1.28064
lfemur -3.18421 11.7829 -17.9111
ltibia 26.0517
lfoot -20.3502 8.09515
ltoes 0.111545
